IKResults
version=1
nRows=4
nColumns=63
inDegrees=yes

Units are S.I. units (second, meters, Newtons, ...)
If the header above contains a line with 'inDegrees', this indicates whether rotational values are in degrees (yes) or radians (no).

endheader
time	pelvis_tilt	pelvis_list	pelvis_rotation	pelvis_tx	pelvis_ty	pelvis_tz	hip_flexion_r	hip_adduction_r	hip_rotation_r	knee_angle_r	knee_angle_r_beta	ankle_angle_r	subtalar_angle_r	mtp_angle_r	hip_flexion_l	hip_adduction_l	hip_rotation_l	knee_angle_l	knee_angle_l_beta	ankle_angle_l	subtalar_angle_l	mtp_angle_l	L5_S1_Flex_Ext	L5_S1_Lat_Bending	L5_S1_axial_rotation	L4_L5_Flex_Ext	L4_L5_Lat_Bending	L4_L5_axial_rotation	L3_L4_Flex_Ext	L3_L4_Lat_Bending	L3_L4_axial_rotation	L2_L3_Flex_Ext	L2_L3_Lat_Bending	L2_L3_axial_rotation	L1_L2_Flex_Ext	L1_L2_Lat_Bending	L1_L2_axial_rotation	L1_T12_Flex_Ext	L1_T12_Lat_Bending	L1_T12_axial_rotation	Abs_r3	Abs_r2	Abs_r1	Abs_t1	Abs_t2	neck_flexion	neck_bending	neck_rotation	arm_flex_r	arm_add_r	arm_rot_r	elbow_flex_r	pro_sup_r	wrist_flex_r	wrist_dev_r	arm_flex_l	arm_add_l	arm_rot_l	elbow_flex_l	pro_sup_l	wrist_flex_l	wrist_dev_l
      3.53333333	   -122.99076748	     39.00190285	    -15.38414019	     -0.33083856	      0.16913018	     -0.11555346	     22.14266183	     21.05608098	     31.31521875	      4.44276060	      0.07754080	      0.00000000	      0.00000000	      0.00000000	     19.13799070	    -33.00210146	    -39.44271703	      0.28915498	      0.00504671	    -64.23271550	      5.45267514	      0.00000000	      1.91299629	      2.88242289	      5.82388961	      3.55262542	      3.83362245	      6.18788271	      3.14286161	      7.00832302	      6.18788271	      2.18636346	      7.00832302	      5.09590341	      1.77640836	      5.87783676	      4.73191031	      1.09308608	      4.46487306	      4.36791721	     13.66434123	     32.60654423	     32.39072684	      0.00000000	      0.00000000	     20.61091384	     19.63065840	     43.91103128	   -219.33734929	    -78.65666426	   -213.71102710	     35.90320215	     89.99559364	      0.00000000	      0.00000000	    -54.01062455	    -51.00262918	    -84.77970199	     66.94541231	     89.99559364	      0.00000000	      0.00000000
      3.56666667	   -122.47159141	     40.73361238	    -13.88629473	     -0.31938772	      0.17394004	     -0.10539072	     22.89314366	     19.31923473	     27.89545559	      3.29868270	      0.05757287	      0.00000000	      0.00000000	      0.00000000	     18.34022553	    -32.32851838	    -39.02256845	      0.48727973	      0.00850464	    -62.64026579	      5.71056139	      0.00000000	      1.83417920	      2.67739936	      5.85334907	      3.40625419	      3.56094114	      6.21918338	      3.01337300	      6.50982880	      6.21918338	      2.09628340	      6.50982880	      5.12168043	      1.70321880	      5.45975277	      4.75584612	      1.04804999	      4.14729160	      4.39001180	     13.10135859	     30.28727700	     32.55457151	      0.00000000	      0.00000000	     18.97932888	     17.67806920	     43.71758568	   -235.63078563	    -81.56949982	   -238.77858379	     33.03661322	     89.99559364	      0.00000000	      0.00000000	    -39.11659199	    -53.25070260	    -80.68238771	     61.24429112	     89.99559364	      0.00000000	      0.00000000
      3.60000000	   -121.42620889	     42.37597988	    -12.26328834	     -0.31017132	      0.17801489	     -0.09536889	     23.25606029	     17.07187972	    -14.09229883	      0.61282471	      0.01069581	      0.00000000	      0.00000000	      0.00000000	     17.39959538	    -31.60072984	    -38.13189692	      0.95638995	      0.01669215	    -60.33118079	      5.44227012	      0.00000000	      1.72152034	      2.44086322	      5.79336277	      3.19703543	      3.24634809	      6.15544794	      2.82828577	      5.93471484	      6.15544794	      1.96752560	      5.93471484	      5.06919242	      1.59860379	      4.97740829	      4.70710725	      0.98367672	      3.78089713	      4.34502208	     12.29664767	     27.61153296	     32.22094571	      0.00000000	      0.00000000	     17.36691033	     16.27339897	     43.20073432	   -266.21755673	    -83.67030474	   -279.20348014	     31.58639490	     89.99559364	      0.00000000	      0.00000000	    -24.24700914	    -54.35744142	    -76.60823707	     56.61361760	     89.99559364	      0.00000000	      0.00000000
      3.63333333	   -120.49307650	     44.12294423	    -10.79810156	     -0.30451072	      0.18200397	     -0.08616935	     23.16006908	     15.48869180	    -15.02906897	      0.53007796	      0.00925161	      0.00000000	      0.00000000	      0.00000000	     16.66592380	    -30.96065670	    -37.30161520	      2.00500414	      0.03499392	    -56.92434317	      4.13239302	      0.00000000	      1.61283637	      2.16080555	      5.69091709	      2.99519843	      2.87387139	      6.04659941	      2.64972888	      5.25378262	      6.04659941	      1.84331069	      5.25378262	      4.97955245	      1.49767986	      4.40631469	      4.62387013	      0.92157470	      3.34708780	      4.26818782	     11.52032893	     24.44346459	     31.65117357	      0.00000000	      0.00000000	     16.05737107	     15.73937550	     42.30272571	   -304.00529104	    -82.69024160	   -326.33411849	     31.09841823	     89.99559364	      0.00000000	      0.00000000	    -12.45488811	    -54.90124509	    -73.48795132	     53.21873009	     89.99559364	      0.00000000	      0.00000000
